<svg xmlns="http://www.w3.org/2000/svg" viewBox="0 0 32 32" fill="none">
  <!-- Knife (simplified) -->
  <path d="M2,23 Q1,20 3,19 L14,17 Q15,16.5 15.5,17.5 L15.5,18.5 Q15,19.5 14,20 Z" fill="#1B2A4A"/>
  <path d="M14,17 Q15,15.5 17,12 L23,3.5 Q23.5,2.5 24.5,3 Q25.5,4 24.5,5.5 L18,15 Q17,16.5 15.5,17.5 Z" fill="#1B2A4A"/>
  
  <!-- Bars -->
  <rect x="15" y="17" width="3" height="4" rx="0.5" fill="#1B2A4A"/>
  <rect x="19.5" y="14.5" width="3" height="6.5" rx="0.5" fill="#1B2A4A"/>
  <rect x="24" y="11" width="3" height="10" rx="0.5" fill="#1B2A4A"/>
  <rect x="28.5" y="7" width="3" height="14" rx="0.5" fill="#1B2A4A"/>
  
  <!-- Orange dot -->
  <circle cx="30" cy="4.5" r="2" fill="#E8722A"/>
</svg>
